<svg xmlns="http://www.w3.org/2000/svg" height="24" viewBox="0 -960 960 960" width="24"><path d="M163.846-355.769v-248.462q0-14.923 9.692-23.615 9.692-8.693 22.616-8.693 5 0 9.461 1 4.462 1 8.692 4.231l186.462 124.462q7.462 5.231 10.808 11.808 3.346 6.576 3.346 15.038t-3.346 15.038q-3.346 6.577-10.808 11.808L214.307-328.692q-4.23 3.231-8.692 4.231-4.461 1-9.461 1-12.924 0-22.616-8.693-9.692-8.692-9.692-23.615Zm355.385 0v-248.462q0-14.923 9.692-23.615 9.692-8.693 22.615-8.693 5 0 9.462 1 4.461 1 8.692 4.231l186.462 124.462q7.462 5.231 10.808 11.808 3.346 6.576 3.346 15.038t-3.346 15.038q-3.346 6.577-10.808 11.808L569.692-328.692q-4.231 3.231-8.692 4.231-4.462 1-9.462 1-12.923 0-22.615-8.693-9.692-8.692-9.692-23.615ZM203.846-480Zm355.385 0ZM203.846-370l165.231-110-165.231-110v220Zm355.385 0 165.23-110-165.23-110v220Z"/></svg>