<svg xmlns="http://www.w3.org/2000/svg" height="24" viewBox="0 -960 960 960" width="24"><path d="M745.693-328.692 559.231-453.154q-7.462-5.231-10.808-11.808-3.346-6.576-3.346-15.038t3.346-15.038q3.346-6.577 10.808-11.808l186.462-124.462q4.23-3.231 8.692-4.231 4.461-1 9.461-1 12.924 0 22.616 8.693 9.692 8.692 9.692 23.615v248.462q0 14.923-9.692 23.615-9.692 8.693-22.616 8.693-5 0-9.461-1-4.462-1-8.692-4.231Zm-355.385 0L203.846-453.154q-7.462-5.231-10.808-11.808-3.346-6.576-3.346-15.038t3.346-15.038q3.346-6.577 10.808-11.808l186.462-124.462q4.231-3.231 8.692-4.231 4.462-1 9.462-1 12.923 0 22.615 8.693 9.692 8.692 9.692 23.615v248.462q0 14.923-9.692 23.615-9.692 8.693-22.615 8.693-5 0-9.462-1-4.461-1-8.692-4.231ZM400.769-480Zm355.385 0ZM400.769-370v-220l-165.23 110 165.23 110Zm355.385 0v-220L590.923-480l165.231 110Z"/></svg>